<?xml version="1.0" encoding="UTF-8" standalone="no"?>
<!-- Created with Inkscape (http://www.inkscape.org/) -->

<svg
   xmlns:dc="http://purl.org/dc/elements/1.1/"
   xmlns:cc="http://creativecommons.org/ns#"
   xmlns:rdf="http://www.w3.org/1999/02/22-rdf-syntax-ns#"
   xmlns:svg="http://www.w3.org/2000/svg"
   xmlns="http://www.w3.org/2000/svg"
   xmlns:sodipodi="http://sodipodi.sourceforge.net/DTD/sodipodi-0.dtd"
   xmlns:inkscape="http://www.inkscape.org/namespaces/inkscape"
   width="855"
   height="135"
   id="svg2"
   version="1.1"
   inkscape:version="0.48.4 r9939"
   inkscape:export-filename="C:\Users\Vikram Dhillon\Google Drive\solid\io-2012-slides-a94a99dad32b\io-2012-slides-a94a99dad32b\images\3.png"
   inkscape:export-xdpi="90"
   inkscape:export-ydpi="90"
   sodipodi:docname="logo_new_July7.svg">
  <defs
     id="defs4">
    <clipPath
       id="clipPath1208"
       clipPathUnits="userSpaceOnUse">
      <path
         id="path1210-9"
         d="m 454.725,446.112 62.791,-118.678 c 60.899,34.278 105.484,94.1 119.238,164.942 l 0,0 -132.38,22.408 c -6.594,-29.062 -24.876,-53.69 -49.649,-68.672"
         inkscape:connector-curvature="0" />
    </clipPath>
    <clipPath
       id="clipPath1192"
       clipPathUnits="userSpaceOnUse">
      <path
         id="path1194-8"
         d="m 78.181,282.075 641.665,0 0,641.231 -641.665,0 0,-641.231 z"
         inkscape:connector-curvature="0" />
    </clipPath>
    <clipPath
       id="clipPath644"
       clipPathUnits="userSpaceOnUse">
      <path
         id="path646-1"
         d="m 156.335,538.839 c 0,-70.025 29.697,-133.1 77.172,-177.359 l 0,0 89.02,100.482 c -19.781,19.619 -32.035,46.816 -32.035,76.877 l 0,0 c 0,29.781 12.028,56.756 31.487,76.33 l 0,0 -89.743,99.845 C 185.501,670.819 156.335,608.237 156.335,538.839"
         inkscape:connector-curvature="0" />
    </clipPath>
    <clipPath
       id="clipPath620"
       clipPathUnits="userSpaceOnUse">
      <path
         id="path622-8"
         d="m 78.181,282.075 641.665,0 0,641.231 -641.665,0 0,-641.231 z"
         inkscape:connector-curvature="0" />
    </clipPath>
    <clipPath
       id="clipPath292"
       clipPathUnits="userSpaceOnUse">
      <path
         id="path294-35"
         d="m 241.293,723.154 89.744,-99.845 c 17.07,13.707 38.379,22.349 61.652,23.638 l 0,0 0,134.255 C 334.949,779.779 282.226,758.16 241.293,723.154"
         inkscape:connector-curvature="0" />
    </clipPath>
    <clipPath
       id="clipPath280-9"
       clipPathUnits="userSpaceOnUse">
      <path
         id="path282-9"
         d="m 78.181,282.075 641.665,0 0,641.231 -641.665,0 0,-641.231 z"
         inkscape:connector-curvature="0" />
    </clipPath>
    <clipPath
       id="clipPath48-9"
       clipPathUnits="userSpaceOnUse">
      <path
         id="path50-56"
         d="m 404.869,646.946 c 56.967,-3.159 102.191,-50.35 102.191,-108.107 l 0,0 c 0,-4.069 -0.233,-8.088 -0.671,-12.041 l 0,0 132.382,-22.41 c 1.602,11.253 2.448,22.752 2.448,34.451 l 0,0 c 0,131.859 -105.27,239.131 -236.35,242.363 l 0,0 0,-134.256 z"
         inkscape:connector-curvature="0" />
    </clipPath>
    <clipPath
       id="clipPath16-09"
       clipPathUnits="userSpaceOnUse">
      <path
         id="path18-76"
         d="m 78.181,282.075 641.665,0 0,641.231 -641.665,0 0,-641.231 z"
         inkscape:connector-curvature="0" />
    </clipPath>
    <clipPath
       clipPathUnits="userSpaceOnUse"
       id="clipPath5296">
      <path
         inkscape:connector-curvature="0"
         d="M 0,792 612,792 612,0 0,0 0,792 z"
         id="path5298" />
    </clipPath>
    <clipPath
       clipPathUnits="userSpaceOnUse"
       id="clipPath5322">
      <path
         inkscape:connector-curvature="0"
         d="M 0,792 612,792 612,0 0,0 0,792 z"
         id="path5324" />
    </clipPath>
    <clipPath
       clipPathUnits="userSpaceOnUse"
       id="clipPath5388">
      <path
         inkscape:connector-curvature="0"
         d="M 0,792 612,792 612,0 0,0 0,792 z"
         id="path5390" />
    </clipPath>
    <clipPath
       clipPathUnits="userSpaceOnUse"
       id="clipPath5524">
      <path
         inkscape:connector-curvature="0"
         d="M 0,792 612,792 612,0 0,0 0,792 z"
         id="path5526" />
    </clipPath>
    <clipPath
       clipPathUnits="userSpaceOnUse"
       id="clipPath3021">
      <path
         inkscape:connector-curvature="0"
         d="M 0,792 612,792 612,0 0,0 0,792 z"
         id="path3023" />
    </clipPath>
    <clipPath
       clipPathUnits="userSpaceOnUse"
       id="clipPath3059">
      <path
         inkscape:connector-curvature="0"
         d="M 0,792 612,792 612,0 0,0 0,792 z"
         id="path3061" />
    </clipPath>
    <clipPath
       clipPathUnits="userSpaceOnUse"
       id="clipPath3225">
      <path
         inkscape:connector-curvature="0"
         d="M 0,792 612,792 612,0 0,0 0,792 z"
         id="path3227" />
    </clipPath>
  </defs>
  <sodipodi:namedview
     id="base"
     pagecolor="#ffffff"
     bordercolor="#666666"
     borderopacity="1.0"
     inkscape:pageopacity="0.0"
     inkscape:pageshadow="2"
     inkscape:zoom="1"
     inkscape:cx="401.78261"
     inkscape:cy="39.694005"
     inkscape:document-units="px"
     inkscape:current-layer="g3903"
     showgrid="false"
     units="in"
     inkscape:window-width="1366"
     inkscape:window-height="715"
     inkscape:window-x="-8"
     inkscape:window-y="-8"
     inkscape:window-maximized="1"
     showguides="true"
     inkscape:guide-bbox="true" />
  <metadata
     id="metadata7">
    <rdf:RDF>
      <cc:Work
         rdf:about="">
        <dc:format>image/svg+xml</dc:format>
        <dc:type
           rdf:resource="http://purl.org/dc/dcmitype/StillImage" />
        <dc:title></dc:title>
      </cc:Work>
    </rdf:RDF>
  </metadata>
  <g
     inkscape:label="Layer 1"
     inkscape:groupmode="layer"
     id="layer1"
     transform="translate(0,-917.35975)">
    <g
       id="g4595"
       transform="translate(3.9661186,2.2973757)">
      <g
         id="g3260"
         transform="translate(-583,25)">
        <g
           transform="matrix(3.8572164,0,0,3.059016,606.52414,-2320.8881)"
           id="g3903">
          <path
             enable-background="new    "
             d="m 55.079136,1032.5653 0.0026,5.2173 -0.908218,0 -0.0031,-5.2174 0.908384,0 z"
             id="path31"
             inkscape:connector-curvature="0"
             style="opacity:0.14899998;fill:#ffffff" />
          <path
             enable-background="new    "
             d="m 53.126518,1033.6097 0.0031,3.1885 -0.908384,0 -0.0026,-3.1885 0.908218,0 z"
             id="path33"
             inkscape:connector-curvature="0"
             style="opacity:0.14899998;fill:#ffffff" />
          <path
             enable-background="new    "
             d="m 10.788655,1033.5743 0.0026,3.2906 -0.8871802,0 -0.00264,-3.2906 0.8871752,0 z"
             id="path35"
             inkscape:connector-curvature="0"
             style="opacity:0.14899998;fill:#ffffff" />
          <path
             enable-background="new    "
             d="m 8.8736453,1032.5653 0.00312,5.2173 -0.9083839,0 -0.00264,-5.2174 0.9082217,0 z"
             id="path37"
             inkscape:connector-curvature="0"
             style="opacity:0.14899998;fill:#ffffff" />
          <g
             transform="matrix(1.1159515,0,0,0.76075856,-0.83252344,294.63312)"
             id="g3967">
            <g
               id="g3964">
              <path
                 style="fill:#444444"
                 inkscape:connector-curvature="0"
                 d="m 0.146834,1032.4145 c -0.0013,-0.4932 0.09797,-0.9149 0.297162,-1.2643 0.199195,-0.3495 0.440027,-0.5246 0.722492,-0.5249 l 63.708462,-0.077 c 0.56249,0 1.01904,0.7928 1.02108,1.775 l 0.0249,11.1369 c 0.001,0.4932 -0.098,0.9149 -0.29716,1.264 -0.1992,0.3498 -0.44024,0.5249 -0.72249,0.5252 l -63.708473,0.077 c -0.562479,0 -1.019037,-0.7928 -1.02108,-1.775 l -0.0249,-11.1369 z"
                 id="path11" />
            </g>
            <g
               id="g15"
               transform="matrix(0.20409372,0,0,0.35585629,-7.78486,955.65131)">
              <path
                 id="path17"
                 d="m 59.435,221.047 53.934,-0.027 0.03,5.642 -53.934,0.028 -0.03,-5.643 z"
                 enable-background="new    "
                 inkscape:connector-curvature="0"
                 style="opacity:0.14899998;fill:#cecece" />
              <path
                 id="path19"
                 d="m 59.226,238.14 34.217,-0.017 0.029,5.404 -34.217,0.017 -0.029,-5.404 z"
                 enable-background="new    "
                 inkscape:connector-curvature="0"
                 style="opacity:0.14899998;fill:#cecece" />
            </g>
            <g
               id="g21"
               transform="matrix(0.20409372,0,0,0.35585629,-7.78486,955.65131)">
              <path
                 id="path23"
                 d="m 343.542,242.265 -53.935,0.027 -0.03,-5.642 53.934,-0.027 0.031,5.642 z"
                 enable-background="new    "
                 inkscape:connector-curvature="0"
                 style="opacity:0.14899998;fill:#cecece" />
              <path
                 id="path25"
                 d="m 343.75,227.676 -34.217,0.017 -0.029,-5.403 34.217,-0.018 0.029,5.404 z"
                 enable-background="new    "
                 inkscape:connector-curvature="0"
                 style="opacity:0.14899998;fill:#cecece" />
            </g>
          </g>
        </g>
        <g
           transform="matrix(0.87703902,0,0,0.90289412,728.55596,39.91528)"
           id="g3933">
          <path
             d="m -142.60312,999.04188 c -0.006,-1.385 0.48,-2.57002 1.456,-3.55202 0.976,-0.982 2.156,-1.474 3.54,-1.475 l 312.153,-0.217 c 2.756,-0.002 4.993,2.229 5.003,4.98902 l 0.122,31.29502 c 0.006,1.386 -0.48,2.571 -1.456,3.553 -0.976,0.982 -2.157,1.474 -3.54,1.475 l -312.153,0.217 c -2.756,0 -4.993,-2.229 -5.003,-4.989 l -0.122,-31.29602 z"
             id="path27"
             inkscape:connector-curvature="0"
             style="fill:#a02c2c;stroke:#00000f;stroke-width:2;stroke-linejoin:round;stroke-opacity:0" />
          <path
             enable-background="new    "
             d="m 162.16188,1002.0899 0.017,23.688 -5.482,0.02 -0.018,-23.688 5.483,-0.02 z"
             id="path31-9"
             inkscape:connector-curvature="0"
             style="opacity:0.14899998;fill:#ffffff" />
          <path
             enable-background="new    "
             d="m 150.37588,1006.8319 0.018,14.476 -5.483,0.012 -0.017,-14.476 5.482,-0.012 z"
             id="path33-4"
             inkscape:connector-curvature="0"
             style="opacity:0.14899998;fill:#ffffff" />
          <path
             enable-background="new    "
             d="m -105.17512,1006.6709 0.017,14.94 -5.355,0.012 -0.017,-14.94 5.355,-0.012 z"
             id="path35-8"
             inkscape:connector-curvature="0"
             style="opacity:0.14899998;fill:#ffffff" />
          <path
             enable-background="new    "
             d="m -116.73412,1002.0899 0.018,23.688 -5.483,0.02 -0.017,-23.688 5.482,-0.02 z"
             id="path37-8"
             inkscape:connector-curvature="0"
             style="opacity:0.14899998;fill:#ffffff" />
        </g>
        <text
           sodipodi:linespacing="125%"
           id="text3051"
           y="928.06238"
           x="606.03387"
           style="font-size:36px;font-style:normal;font-variant:normal;font-weight:bold;font-stretch:normal;line-height:125%;letter-spacing:0px;word-spacing:0px;fill:#000000;fill-opacity:1;stroke:none;font-family:Lucida Console;-inkscape-font-specification:Lucida Console Bold"
           xml:space="preserve"><tspan
             style="font-size:28px;font-style:normal;font-variant:normal;font-weight:bold;font-stretch:normal;font-family:Lucida Console;-inkscape-font-specification:Lucida Console Bold"
             y="928.06238"
             x="606.03387"
             id="tspan3053"
             sodipodi:role="line">.hack<tspan
   id="tspan3063"
   style="font-size:28px;font-style:normal;font-variant:normal;font-weight:bold;font-stretch:normal;fill:#c83737;font-family:Lucida Console;-inkscape-font-specification:Lucida Console Bold">(theWorld);</tspan></tspan></text>
      </g>
      <text
         transform="scale(0.9141997,1.0938529)"
         sodipodi:linespacing="125%"
         id="text3761-9-0"
         y="925.01514"
         x="353.91486"
         style="font-size:49.72211075px;font-style:normal;font-variant:normal;font-weight:normal;font-stretch:normal;line-height:125%;letter-spacing:0px;word-spacing:0px;fill:#000000;fill-opacity:1;stroke:none;font-family:Titillium;-inkscape-font-specification:Sans"
         xml:space="preserve"><tspan
           style="font-size:48px;font-style:normal;font-variant:normal;font-weight:normal;font-stretch:normal;fill:#e10052;fill-opacity:1;font-family:BatmanForeverAlternate;-inkscape-font-specification:BatmanForeverAlternate"
           y="925.01514"
           x="353.91486"
           id="tspan3763-8-7"
           sodipodi:role="line"><tspan
             id="tspan5272-9-8"
             style="font-size:48px;font-style:normal;font-variant:normal;font-weight:normal;font-stretch:normal;fill:#49bc91;fill-opacity:1;font-family:BatmanForeverAlternate;-inkscape-font-specification:BatmanForeverAlternate">Blazen</tspan><tspan
             id="tspan3769-7-1"
             style="font-size:48px;font-style:normal;font-variant:normal;font-weight:normal;font-stretch:normal;fill:#4d4c4e;fill-opacity:1;font-family:BatmanForeverAlternate;-inkscape-font-specification:BatmanForeverAlternate">Analytics</tspan></tspan></text>
    </g>
  </g>
</svg>
