<?xml version="1.0" encoding="UTF-8" standalone="no"?>
<!-- Created with Inkscape (http://www.inkscape.org/) -->

<svg
   xmlns:dc="http://purl.org/dc/elements/1.1/"
   xmlns:cc="http://creativecommons.org/ns#"
   xmlns:rdf="http://www.w3.org/1999/02/22-rdf-syntax-ns#"
   xmlns:svg="http://www.w3.org/2000/svg"
   xmlns="http://www.w3.org/2000/svg"
   xmlns:sodipodi="http://sodipodi.sourceforge.net/DTD/sodipodi-0.dtd"
   xmlns:inkscape="http://www.inkscape.org/namespaces/inkscape"
   width="128"
   height="128"
   id="svg3054"
   version="1.1"
   inkscape:version="0.48.4 r9939"
   sodipodi:docname="logo_small.svg"
   inkscape:export-filename="C:\Users\Vikram Dhillon\Google Drive\solid\io-2012-slides-a94a99dad32b\io-2012-slides-a94a99dad32b\images\logo_small.png"
   inkscape:export-xdpi="90"
   inkscape:export-ydpi="90">
  <defs
     id="defs3056" />
  <sodipodi:namedview
     id="base"
     pagecolor="#ffffff"
     bordercolor="#666666"
     borderopacity="1.0"
     inkscape:pageopacity="0.0"
     inkscape:pageshadow="2"
     inkscape:zoom="1"
     inkscape:cx="184.13732"
     inkscape:cy="64.172619"
     inkscape:document-units="px"
     inkscape:current-layer="g3903"
     showgrid="false"
     units="px"
     inkscape:window-width="1366"
     inkscape:window-height="715"
     inkscape:window-x="-8"
     inkscape:window-y="-8"
     inkscape:window-maximized="1" />
  <metadata
     id="metadata3059">
    <rdf:RDF>
      <cc:Work
         rdf:about="">
        <dc:format>image/svg+xml</dc:format>
        <dc:type
           rdf:resource="http://purl.org/dc/dcmitype/StillImage" />
        <dc:title></dc:title>
      </cc:Work>
    </rdf:RDF>
  </metadata>
  <g
     inkscape:label="Layer 1"
     inkscape:groupmode="layer"
     id="layer1"
     transform="translate(0,-924.3598)">
    <text
       sodipodi:linespacing="125%"
       id="text3051"
       y="1038.2102"
       x="-1.4341301"
       style="font-size:36px;font-style:normal;font-variant:normal;font-weight:bold;font-stretch:normal;line-height:125%;letter-spacing:0px;word-spacing:0px;fill:#000000;fill-opacity:1;stroke:none;font-family:Lucida Console;-inkscape-font-specification:Lucida Console Bold"
       xml:space="preserve"><tspan
         style="font-size:28px;font-style:normal;font-variant:normal;font-weight:bold;font-stretch:normal;font-family:Lucida Console;-inkscape-font-specification:Lucida Console Bold"
         y="1038.2102"
         x="-1.4341301"
         id="tspan3053"
         sodipodi:role="line" /></text>
    <g
       transform="matrix(1.7406549,0,0,2.9717696,1.3478116,-2194.5548)"
       id="g3903">
      <path
         enable-background="new    "
         d="m 55.079136,1032.5653 0.0026,5.2173 -0.908218,0 -0.0031,-5.2174 0.908384,0 z"
         id="path31"
         inkscape:connector-curvature="0"
         style="opacity:0.14899998;fill:#ffffff" />
      <path
         enable-background="new    "
         d="m 53.126518,1033.6097 0.0031,3.1885 -0.908384,0 -0.0026,-3.1885 0.908218,0 z"
         id="path33"
         inkscape:connector-curvature="0"
         style="opacity:0.14899998;fill:#ffffff" />
      <path
         enable-background="new    "
         d="m 10.788655,1033.5743 0.0026,3.2906 -0.8871802,0 -0.00264,-3.2906 0.8871752,0 z"
         id="path35"
         inkscape:connector-curvature="0"
         style="opacity:0.14899998;fill:#ffffff" />
      <path
         enable-background="new    "
         d="m 8.8736453,1032.5653 0.00312,5.2173 -0.9083839,0 -0.00264,-5.2174 0.9082217,0 z"
         id="path37"
         inkscape:connector-curvature="0"
         style="opacity:0.14899998;fill:#ffffff" />
      <g
         transform="matrix(1.1159515,0,0,0.76075856,-0.83252344,287.90312)"
         id="g3967">
        <g
           id="g3964">
          <path
             style="fill:#444444"
             inkscape:connector-curvature="0"
             d="m 0.146834,1032.4145 c -0.0013,-0.4932 0.09797,-0.9149 0.297162,-1.2643 0.199195,-0.3495 0.440027,-0.5246 0.722492,-0.5249 l 63.708462,-0.077 c 0.56249,0 1.01904,0.7928 1.02108,1.775 l 0.0249,11.1369 c 0.001,0.4932 -0.098,0.9149 -0.29716,1.264 -0.1992,0.3498 -0.44024,0.5249 -0.72249,0.5252 l -63.708473,0.077 c -0.562479,0 -1.019037,-0.7928 -1.02108,-1.775 l -0.0249,-11.1369 z"
             id="path11" />
        </g>
        <g
           id="g15"
           transform="matrix(0.20409372,0,0,0.35585629,-7.78486,955.65131)">
          <path
             id="path17"
             d="m 59.435,221.047 53.934,-0.027 0.03,5.642 -53.934,0.028 -0.03,-5.643 z"
             enable-background="new    "
             inkscape:connector-curvature="0"
             style="opacity:0.14899998;fill:#cecece" />
          <path
             id="path19"
             d="m 59.226,238.14 34.217,-0.017 0.029,5.404 -34.217,0.017 -0.029,-5.404 z"
             enable-background="new    "
             inkscape:connector-curvature="0"
             style="opacity:0.14899998;fill:#cecece" />
        </g>
        <g
           id="g21"
           transform="matrix(0.20409372,0,0,0.35585629,-7.78486,955.65131)">
          <path
             id="path23"
             d="m 343.542,242.265 -53.935,0.027 -0.03,-5.642 53.934,-0.027 0.031,5.642 z"
             enable-background="new    "
             inkscape:connector-curvature="0"
             style="opacity:0.14899998;fill:#cecece" />
          <path
             id="path25"
             d="m 343.75,227.676 -34.217,0.017 -0.029,-5.403 34.217,-0.018 0.029,5.404 z"
             enable-background="new    "
             inkscape:connector-curvature="0"
             style="opacity:0.14899998;fill:#cecece" />
        </g>
      </g>
    </g>
    <g
       transform="matrix(0.39483164,0,0,0.7776195,56.946391,181.65279)"
       id="g3933">
      <path
         d="m -142.60312,999.04188 c -0.006,-1.385 0.48,-2.57002 1.456,-3.55202 0.976,-0.982 2.156,-1.474 3.54,-1.475 l 312.153,-0.217 c 2.756,-0.002 4.993,2.229 5.003,4.98902 l 0.122,31.29502 c 0.006,1.386 -0.48,2.571 -1.456,3.553 -0.976,0.982 -2.157,1.474 -3.54,1.475 l -312.153,0.217 c -2.756,0 -4.993,-2.229 -5.003,-4.989 l -0.122,-31.29602 z"
         id="path27"
         inkscape:connector-curvature="0"
         style="fill:#a02c2c;stroke:#00000f;stroke-width:2;stroke-linejoin:round;stroke-opacity:0" />
      <path
         enable-background="new    "
         d="m 162.16188,1002.0899 0.017,23.688 -5.482,0.02 -0.018,-23.688 5.483,-0.02 z"
         id="path31-9"
         inkscape:connector-curvature="0"
         style="opacity:0.14899998;fill:#ffffff" />
      <path
         enable-background="new    "
         d="m 150.37588,1006.8319 0.018,14.476 -5.483,0.012 -0.017,-14.476 5.482,-0.012 z"
         id="path33-4"
         inkscape:connector-curvature="0"
         style="opacity:0.14899998;fill:#ffffff" />
      <path
         enable-background="new    "
         d="m -105.17512,1006.6709 0.017,14.94 -5.355,0.012 -0.017,-14.94 5.355,-0.012 z"
         id="path35-8"
         inkscape:connector-curvature="0"
         style="opacity:0.14899998;fill:#ffffff" />
      <path
         enable-background="new    "
         d="m -116.73412,1002.0899 0.018,23.688 -5.483,0.02 -0.017,-23.688 5.482,-0.02 z"
         id="path37-8"
         inkscape:connector-curvature="0"
         style="opacity:0.14899998;fill:#ffffff" />
    </g>
  </g>
</svg>
